<svg xmlns="http://www.w3.org/2000/svg" viewBox="0 0 892.51 892.51"><defs><style>.cls-1{fill:#fff;}</style></defs><g id="Layer_2" data-name="Layer 2"><g id="Layer_1-2" data-name="Layer 1"><path class="cls-1" d="M446.26,2c38,0,74.87,25.48,106.58,73.69,31.16,47.37,55.56,113.7,70.58,191.82l.25,1.33,1.34.26c78.11,15,144.44,39.42,191.82,70.58,48.2,31.7,73.68,68.56,73.68,106.58S865,521.13,816.83,552.84C769.45,584,703.12,608.4,625,623.42l-1.34.25-.25,1.33c-15,78.12-39.42,144.45-70.58,191.83-31.71,48.2-68.56,73.68-106.58,73.68S371.38,865,339.68,816.83C308.52,769.45,284.11,703.12,269.1,625l-.26-1.33-1.33-.25c-78.12-15-144.45-39.42-191.82-70.58C27.48,521.13,2,484.28,2,446.26s25.48-74.88,73.69-106.58c47.37-31.16,113.7-55.57,191.82-70.58l1.33-.26.26-1.33c15-78.12,39.42-144.45,70.58-191.82C371.38,27.48,408.24,2,446.26,2m0-2c-80.07,0-148.9,109.86-179.13,267.13C109.86,297.36,0,366.19,0,446.26S109.86,595.15,267.13,625.38c30.23,157.28,99.06,267.13,179.13,267.13S595.15,782.66,625.38,625.38c157.28-30.23,267.13-99.06,267.13-179.12S782.66,297.36,625.38,267.13C595.15,109.86,526.33,0,446.26,0Z"/><path class="cls-1" d="M676.61,98.92c32.74,0,58.74,9,77.3,26.85,27.43,26.32,36.37,70.23,25.86,127C769.44,308.49,741.11,373.24,697.85,440l-.74,1.14.78,1.11c46,64.93,76.91,128.47,89.51,183.75,12.82,56.26,5.68,100.49-20.65,127.92-19.19,20-47.33,30.13-83.62,30.13-31.16,0-67-7.49-106.61-22.27s-81.42-36.32-124-63.92l-1.14-.74-1.1.78c-43.13,30.53-85.51,54.38-126,70.88s-76.85,24.82-108.42,24.82c-32.73,0-58.74-9-77.29-26.84-27.43-26.33-36.37-70.23-25.86-127,10.32-55.75,38.65-120.5,81.92-187.26l.73-1.14-.78-1.1c-46-64.93-76.9-128.47-89.5-183.76C92.3,210.27,99.44,166,125.77,138.61c19.19-20,47.32-30.14,83.62-30.14,31.15,0,67,7.5,106.6,22.27s81.42,36.33,124,63.93l1.14.73,1.11-.78c43.13-30.53,85.5-54.37,126-70.87s76.86-24.83,108.42-24.83m0-2c-64,0-148.65,34.58-235.53,96.07-85.83-55.63-168.63-86.51-231.69-86.52-35.68,0-65,9.88-85.07,30.75C68.88,195,100.46,320.71,193,451.43c-87.11,134.4-113.53,261.31-55.77,316.76,19.37,18.6,46.39,27.4,78.68,27.4,64,0,148.65-34.57,235.53-96.06C537.27,755.16,620.07,786,683.13,786c35.68,0,65-9.87,85.06-30.75,55.45-57.76,23.86-183.48-68.66-314.21,87.1-134.4,113.53-261.31,55.76-316.76-19.37-18.59-46.39-27.4-78.68-27.4Z"/></g></g></svg>